# File created by Blade
# Date/Time:  Wed Jan 21 16:27:40 2015
# Frame Rate: 120.000 fps
#------------------------------------------------------
:FULLY-SPECIFIED
:DEGREES
586
root 14.718349 14.830421 -22.493807 -181.845904 48.302589 -202.191663
Spine 55.443228 -20.188871 -0.146090
Head -32.132161 -10.490513 19.327046
LeftShoulder 27.694115 -42.298407 -3.801988
LeftArm 26.331814 22.734383 -70.133582
LeftForeArm -28.450487 -0.000000 3.896980
LeftHand -5.045800 0.000000 4.049193
LeftHandThumb1 -26.253704 0.000000 33.147579
RightShoulder 9.635285 -3.532507 3.392565
RightArm 45.012132 -11.760665 35.741411
RightForeArm -23.833483 -0.000000 18.343073
RightHand -10.473787 -0.000000 -19.196314
RightHandThumb1 -24.326973 -0.000000 -32.862282
LeftUpLeg 19.582008 -10.211618 19.402073
LeftLeg 46.583054 -0.000000 -0.000000
LeftFoot 4.154041 10.317651 -11.677192
LeftToeBase -50.146161 -0.000000 0.000000
RightUpLeg -97.866867 -28.981384 13.009659
RightLeg 4.306285 -0.000000 -0.000000
RightFoot 32.623713 -39.019282 -13.920134
RightToeBase -2.307093 -0.000000 0.000000
587
root 14.804601 14.748320 -22.496902 -182.048292 48.080700 -202.467278
Spine 55.147177 -20.123486 -0.348565
Head -31.897457 -10.765065 19.460283
LeftShoulder 27.710786 -42.282899 -3.736763
LeftArm 25.905630 23.049113 -70.418848
LeftForeArm -28.275213 -0.000000 4.023131
LeftHand -5.048016 0.000000 4.028750
LeftHandThumb1 -26.253704 0.000000 33.147579
RightShoulder 9.485985 -3.514976 3.543061
RightArm 44.748919 -12.409328 35.729504
RightForeArm -23.614819 -0.000000 18.348319
RightHand -10.481498 -0.000000 -19.294854
RightHandThumb1 -24.326973 -0.000000 -32.862282
LeftUpLeg 19.511635 -10.198338 19.470354
LeftLeg 46.638336 -0.000000 -0.000000
LeftFoot 4.543477 10.517894 -11.466178
LeftToeBase -48.812833 -0.000000 0.000000
RightUpLeg -98.171557 -29.118944 13.248591
RightLeg 4.093134 -0.000000 -0.000000
RightFoot 33.243005 -38.526746 -14.279466
RightToeBase -2.353091 -0.000000 0.000000
588
root 14.881977 14.668605 -22.495393 -182.179222 47.866792 -202.735907
Spine 54.781359 -20.096200 -0.535677
Head -31.660044 -11.042086 19.521889
LeftShoulder 27.628609 -42.213385 -3.631941
LeftArm 25.591533 23.374711 -70.660289
LeftForeArm -28.135994 -0.000000 4.088575
LeftHand -5.039783 0.000000 4.016070
LeftHandThumb1 -26.253704 0.000000 33.147579
RightShoulder 9.413604 -3.608167 3.614270
RightArm 44.495807 -12.780166 35.944498
RightForeArm -23.546221 -0.000000 18.336569
RightHand -10.424751 -0.000000 -19.249918
RightHandThumb1 -24.326973 -0.000000 -32.862282
LeftUpLeg 19.357278 -10.153982 19.570138
LeftLeg 46.731837 -0.000000 -0.000000
LeftFoot 4.788025 10.694886 -11.196135
LeftToeBase -47.327747 -0.000000 0.000000
RightUpLeg -98.446567 -29.250270 13.305380
RightLeg 3.893687 -0.000000 -0.000000
RightFoot 33.955500 -38.038291 -14.426970
RightToeBase -2.592455 -0.000000 0.000000
589
root 14.967184 14.585735 -22.498831 -182.380175 47.691872 -202.987889
Spine 54.508076 -20.027765 -0.762638
Head -31.379699 -11.301932 19.576543
LeftShoulder 27.549556 -42.180170 -3.520489
LeftArm 25.196975 23.545269 -71.023130
LeftForeArm -27.865497 -0.000000 4.155339
LeftHand -5.056709 -0.000000 4.032767
LeftHandThumb1 -26.253704 0.000000 33.147579
RightShoulder 9.263230 -3.972226 3.753425
RightArm 44.544307 -13.163402 35.801380
RightForeArm -23.210270 0.000000 18.349319
RightHand -10.553037 0.000000 -19.431337
RightHandThumb1 -24.326973 -0.000000 -32.862282
LeftUpLeg 19.329105 -10.086019 19.659943
LeftLeg 46.791885 -0.000000 -0.000000
LeftFoot 5.075911 10.897313 -10.958475
LeftToeBase -45.854406 -0.000000 0.000000
RightUpLeg -98.526758 -29.389950 13.162028
RightLeg 3.712978 -0.000000 -0.000000
RightFoot 34.478703 -37.462675 -14.507714
RightToeBase -2.704141 -0.000000 0.000000
590
root 15.057573 14.497877 -22.505807 -182.624410 47.485486 -203.218678
Spine 54.275319 -20.022337 -1.037715
Head -31.010329 -11.512846 19.586722
LeftShoulder 27.381530 -42.034202 -3.360462
LeftArm 24.939488 23.723292 -71.295568
LeftForeArm -27.607321 0.000000 4.130100
LeftHand -5.002919 -0.000000 4.008021
LeftHandThumb1 -26.253704 0.000000 33.147579
RightShoulder 9.166776 -4.260193 3.884662
RightArm 44.434333 -13.177240 36.317510
RightForeArm -23.501980 -0.000000 18.233200
RightHand -10.516173 -0.000000 -19.571929
RightHandThumb1 -24.326973 -0.000000 -32.862282
LeftUpLeg 19.407335 -10.082948 19.751459
LeftLeg 46.762378 -0.000000 -0.000000
LeftFoot 5.361637 11.045305 -10.876749
LeftToeBase -44.560846 -0.000000 0.000000
RightUpLeg -98.369862 -29.594101 12.672427
RightLeg 3.531572 -0.000000 -0.000000
RightFoot 34.991959 -37.097588 -14.759738
RightToeBase -2.844070 -0.000000 0.000000
591
root 15.135389 14.412645 -22.509973 -182.789504 47.294214 -203.450812
Spine 53.926541 -19.960347 -1.154337
Head -30.706278 -11.853719 19.517918
LeftShoulder 27.350805 -41.918037 -3.330986
LeftArm 24.670910 23.845657 -71.627926
LeftForeArm -27.337038 -0.000000 4.102636
LeftHand -4.982514 -0.000000 4.000218
LeftHandThumb1 -26.253704 0.000000 33.147579
RightShoulder 8.913388 -4.515280 4.026927
RightArm 44.314191 -13.384349 36.571615
RightForeArm -23.612025 -0.000000 18.280360
RightHand -10.537622 0.000000 -19.775593
RightHandThumb1 -24.326973 -0.000000 -32.862282
LeftUpLeg 19.374492 -10.062000 19.833197
LeftLeg 46.808817 -0.000000 -0.000000
LeftFoot 5.555442 11.116543 -10.628625
LeftToeBase -42.559707 -0.000000 0.000000
RightUpLeg -98.508934 -29.729015 12.569328
RightLeg 3.390674 -0.000000 -0.000000
RightFoot 35.400393 -36.533040 -14.981213
RightToeBase -2.908056 -0.000000 0.000000
592
root 15.210713 14.325890 -22.515063 -182.968149 47.099619 -203.699276
Spine 53.591101 -19.933404 -1.345166
Head -30.369893 -12.183453 19.496968
LeftShoulder 27.240194 -41.761337 -3.217463
LeftArm 24.397014 23.892297 -71.972500
LeftForeArm -26.993776 -0.000000 4.132006
LeftHand -4.939356 -0.000000 4.041069
LeftHandThumb1 -26.253704 0.000000 33.147579
RightShoulder 8.701326 -4.904840 4.229052
RightArm 44.313572 -13.497861 36.696576
RightForeArm -23.631855 -0.000000 18.299493
RightHand -10.554094 0.000000 -19.980177
RightHandThumb1 -24.326973 -0.000000 -32.862282
LeftUpLeg 19.383787 -10.073657 19.877482
LeftLeg 46.790543 -0.000000 -0.000000
LeftFoot 5.735667 11.233995 -10.480508
LeftToeBase -41.370265 -0.000000 0.000000
RightUpLeg -98.577240 -29.886638 12.307887
RightLeg 3.197636 -0.000000 -0.000000
RightFoot 35.810099 -36.257049 -15.005222
RightToeBase -4.031839 -0.000000 0.000000
